{
  "accessors": [
    {
      "bufferView": 2,
      "componentType": 5126,
      "count": 1558,
      "max": [
        0.35600000619888306,
        0.21009999513626099,
        1.7013000249862671
      ],
      "min": [
        -0.3822999894618988,
        -0.13470000028610229,
        -0.007799999788403511
      ],
      "type": "VEC3"
    },
    {
      "bufferView": 2,
      "byteOffset": 18696,
      "componentType": 5126,
      "count": 1558,
      "max": [
        0.99999892711639404,
        0.99492871761322021,
        1
      ],
      "min": [
        -0.99817252159118652,
        -0.99774885177612305,
        -1
      ],
      "type": "VEC3"
    },
    {
      "bufferView": 3,
      "componentType": 5126,
      "count": 1558,
      "max": [
        0.99933260679244995,
        1,
        0.99790233373641968,
        1
      ],
      "min": [
        -0.99948030710220337,
        -1,
        -0.99877488613128662,
        -1
      ],
      "type": "VEC4"
    },
    {
      "bufferView": 1,
      "componentType": 5126,
      "count": 1558,
      "max": [
        0.9868999719619751,
        0.99159997701644897
      ],
      "min": [
        0.020600000396370888,
        0.02500000037252903
      ],
      "type": "VEC2"
    },
    {
      "bufferView": 0,
      "componentType": 5125,
      "count": 2310,
      "max": [
        1557
      ],
      "min": [
        0
      ],
      "type": "SCALAR"
    }
  ],
  "asset": {
    "extras": {
      "author": "tuturu (https://sketchfab.com/tuturu)",
      "license": "CC-BY-4.0 (http://creativecommons.org/licenses/by/4.0/)",
      "source": "https://sketchfab.com/models/05dea41b2af649c0b4a6ee4d1a10cf81",
      "title": "Archer male - Medieval Fantasy Challenge"
    },
    "generator": "Sketchfab-3.18.5",
    "version": "2.0"
  },
  "bufferViews": [
    {
      "buffer": 0,
      "byteLength": 9240,
      "byteOffset": 0,
      "name": "floatBufferViews",
      "target": 34963
    },
    {
      "buffer": 0,
      "byteLength": 12464,
      "byteOffset": 9240,
      "byteStride": 8,
      "name": "floatBufferViews",
      "target": 34962
    },
    {
      "buffer": 0,
      "byteLength": 37392,
      "byteOffset": 21704,
      "byteStride": 12,
      "name": "floatBufferViews",
      "target": 34962
    },
    {
      "buffer": 0,
      "byteLength": 24928,
      "byteOffset": 59096,
      "byteStride": 16,
      "name": "floatBufferViews",
      "target": 34962
    }
  ],
  "buffers": [
    {
      "byteLength": 84024,
      "uri": "scene.bin"
    }
  ],
  "images": [
    {
      "uri": "textures/Scene_-_Root_baseColor.png"
    }
  ],
  "materials": [
    {
      "doubleSided": true,
      "name": "Scene_-_Root",
      "pbrMetallicRoughness": {
        "baseColorFactor": [
          1,
          1,
          1,
          1
        ],
        "baseColorTexture": {
          "index": 0,
          "texCoord": 0
        },
        "metallicFactor": 0.35849056600000001,
        "roughnessFactor": 0.81132075469999998
      }
    }
  ],
  "meshes": [
    {
      "primitives": [
        {
          "attributes": {
            "NORMAL": 1,
            "POSITION": 0,
            "TANGENT": 2,
            "TEXCOORD_0": 3
          },
          "indices": 4,
          "material": 0,
          "mode": 4
        }
      ]
    }
  ],
  "nodes": [
    {
      "children": [
        1
      ],
      "name": "RootNode (gltf orientation matrix)",
      "rotation": [
        -0.70710678118654746,
        -0,
        -0,
        0.70710678118654757
      ]
    },
    {
      "children": [
        2
      ],
      "name": "RootNode (model correction matrix)"
    },
    {
      "children": [
        3
      ],
      "name": "c33c0ad356134fcb94ab62095d7a4048.obj.cleaner.materialmerger.gles"
    },
    {
      "mesh": 0,
      "name": ""
    }
  ],
  "samplers": [
    {
      "magFilter": 9729,
      "minFilter": 9987,
      "wrapS": 10497,
      "wrapT": 10497
    }
  ],
  "scene": 0,
  "scenes": [
    {
      "name": "OSG_Scene",
      "nodes": [
        0
      ]
    }
  ],
  "textures": [
    {
      "sampler": 0,
      "source": 0
    }
  ]
}

